<?xml version="1.0" encoding="UTF-8"?><svg id="_레이어_2" xmlns="http://www.w3.org/2000/svg" viewBox="0 0 1244.484 238.758"><defs><style>.cls-1{fill:#fff;}</style></defs><polygon class="cls-1" points="0 0 93.016 0 93.016 87.976 163.379 87.976 163.379 0 256.488 0 256.488 238.758 163.379 238.758 163.379 133.237 93.016 133.237 93.016 238.758 0 238.758 0 0"/><rect class="cls-1" x="311.829" width="95.463" height="42.529"/><rect class="cls-1" x="311.829" y="75.449" width="95.463" height="163.309"/><path class="cls-1" d="M455.143,128.243v45.261h100.505v-20.017c-6.499-7.111-32.497-24.96-42.811-25.244h-57.694Z"/><path class="cls-1" d="M603.45,0v238.758h85.386V85.48l42.717,153.278h103.096l40.267-153.278v153.278h88.024V46.484c0-18.131-26.467-46.484-53.925-46.484h-89.437l-36.547,127.867L751.71,0h-148.26Z"/><path class="cls-1" d="M1169.081,0h-93.062c-36.549,0-75.403,41.963-75.403,75.401v87.978c0,33.39,38.854,75.379,75.403,75.379h93.062c36.643,0,75.403-41.989,75.403-75.379v-87.978c0-33.438-38.76-75.401-75.403-75.401M1152.739,178.495c0,9.561-12.481,25.151-30.284,25.151s-30.094-15.59-30.094-25.151v-113.078c0-9.655,12.245-25.245,30.094-25.245s30.284,15.59,30.284,25.245v113.078Z"/></svg>